<?xml version="1.0" encoding="utf-8"?><svg viewBox="0 0 83 58" xmlns="http://www.w3.org/2000/svg" xmlns:xlink="http://www.w3.org/1999/xlink"><style>:root>svg{display:none}:root>svg:target{display:block}</style><svg viewBox="0 0 30 30" id="call-calling" xmlns="http://www.w3.org/2000/svg"><g filter="url(#afilter0_d_0_52)" stroke="#D3B47F" stroke-width="1.5"><path d="M24.97 17.33c0 .36-.08.73-.25 1.09-.17.36-.39.7-.68 1.02-.49.54-1.03.93-1.64 1.18-.6.25-1.25.38-1.95.38-1.02 0-2.11-.24-3.26-.73s-2.3-1.15-3.44-1.98a28.75 28.75 0 01-3.28-2.8 28.414 28.414 0 01-2.79-3.27c-.82-1.14-1.48-2.28-1.96-3.41C5.24 7.67 5 6.58 5 5.54c0-.68.12-1.33.36-1.93.24-.61.62-1.17 1.15-1.67C7.15 1.31 7.85 1 8.59 1c.28 0 .56.06.81.18.26.12.49.3.67.56l2.32 3.27c.18.25.31.48.4.7.09.21.14.42.14.61 0 .24-.07.48-.21.71-.13.23-.32.47-.56.71l-.76.79c-.11.11-.16.24-.16.4 0 .08.01.15.03.23.03.08.06.14.08.2.18.33.49.76.93 1.28.45.52.93 1.05 1.45 1.58.54.53 1.06 1.02 1.59 1.47.52.44.95.74 1.29.92.05.02.11.05.18.08.08.03.16.04.25.04.17 0 .3-.06.41-.17l.76-.75c.25-.25.49-.44.72-.56.23-.14.46-.21.71-.21.19 0 .39.04.61.13.22.09.45.22.7.39l3.31 2.35c.26.18.44.39.55.64.1.25.16.5.16.78z" stroke-miterlimit="10"/><path d="M21.5 8c0-.6-.47-1.52-1.17-2.27-.64-.69-1.49-1.23-2.33-1.23M25 8c0-3.87-3.13-7-7-7" stroke-linecap="round" stroke-linejoin="round"/></g><defs><filter id="afilter0_d_0_52" x=".25" y=".25" width="29.5" height="29.5" filterUnits="userSpaceOnUse" color-interpolation-filters="sRGB"><feFlood flood-opacity="0" result="BackgroundImageFix"/><feColorMatrix in="SourceAlpha" values="0 0 0 0 0 0 0 0 0 0 0 0 0 0 0 0 0 0 127 0" result="hardAlpha"/><feOffset dy="4"/><feGaussianBlur stdDeviation="2"/><feComposite in2="hardAlpha" operator="out"/><feColorMatrix values="0 0 0 0 0 0 0 0 0 0 0 0 0 0 0 0 0 0 0.25 0"/><feBlend in2="BackgroundImageFix" result="effect1_dropShadow_0_52"/><feBlend in="SourceGraphic" in2="effect1_dropShadow_0_52" result="shape"/></filter></defs></svg><svg viewBox="0 0 24 24" id="email" xmlns="http://www.w3.org/2000/svg"><path d="M17 20.5H7c-3 0-5-1.5-5-5v-7c0-3.5 2-5 5-5h10c3 0 5 1.5 5 5v7c0 3.5-2 5-5 5z" stroke="#fff" stroke-width="1.5" stroke-miterlimit="10" stroke-linecap="round" stroke-linejoin="round"/><path d="M17 9l-3.13 2.5c-1.03.82-2.72.82-3.75 0L7 9" stroke="#fff" stroke-width="1.5" stroke-miterlimit="10" stroke-linecap="round" stroke-linejoin="round"/></svg><svg viewBox="0 0 48 48" id="fb" xmlns="http://www.w3.org/2000/svg"><circle cx="24" cy="24" r="23.5" stroke="#fff"/><path d="M21.336 18.832v1.808H16.68v2.864h3.568v1.776H16.68V30h-2.24V18.832h6.896zm3.828 3.6a3.219 3.219 0 011.184-1.04c.512-.267 1.094-.4 1.744-.4a3.836 3.836 0 013.504 2.16c.363.683.544 1.477.544 2.384 0 .907-.181 1.712-.544 2.416-.352.693-.837 1.232-1.456 1.616a3.755 3.755 0 01-2.048.576c-.661 0-1.242-.128-1.744-.384a3.467 3.467 0 01-1.184-1.024V30h-2.24V18.16h2.24v4.272zm4.688 3.104c0-.533-.112-.992-.336-1.376a2.189 2.189 0 00-.864-.896 2.268 2.268 0 00-1.152-.304c-.405 0-.789.107-1.152.32-.352.203-.64.501-.864.896-.213.395-.32.859-.32 1.392 0 .533.107.997.32 1.392.224.395.512.699.864.912.363.203.747.304 1.152.304.416 0 .8-.107 1.152-.32a2.29 2.29 0 00.864-.912c.224-.395.336-.864.336-1.408z"/></svg><svg viewBox="0 0 24 24" id="hours" xmlns="http://www.w3.org/2000/svg"><path d="M22 12c0 5.52-4.48 10-10 10S2 17.52 2 12 6.48 2 12 2s10 4.48 10 10z" stroke="#fff" stroke-width="1.5" stroke-linecap="round" stroke-linejoin="round"/><path d="M15.71 15.18l-3.1-1.85c-.54-.32-.98-1.09-.98-1.72v-4.1" stroke="#fff" stroke-width="1.5" stroke-linecap="round" stroke-linejoin="round"/></svg><svg viewBox="0 0 48 48" id="ld" xmlns="http://www.w3.org/2000/svg"><circle cx="24" cy="24" r="23.5" stroke="#fff"/><path d="M16.456 30h2.24V18.832h-2.24V30zm3.877-4.464c0 2.768 1.792 4.608 4.048 4.608 1.392 0 2.4-.688 2.928-1.456v1.376c0 1.648-.96 2.352-2.192 2.352-1.12 0-1.952-.528-2.176-1.328h-2.224c.224 2.032 1.968 3.28 4.464 3.28 2.912 0 4.384-1.904 4.384-4.304v-8.928h-2.256V22.4c-.528-.768-1.536-1.408-2.928-1.408-2.256 0-4.048 1.776-4.048 4.544zm6.976.032c0 1.68-1.12 2.608-2.352 2.608-1.2 0-2.336-.96-2.336-2.64 0-1.68 1.136-2.576 2.336-2.576 1.232 0 2.352.928 2.352 2.608z"/></svg><svg viewBox="0 0 24 24" id="map" xmlns="http://www.w3.org/2000/svg"><path d="M22 9v6c0 2.5-.5 4.25-1.62 5.38L14 14l7.73-7.73c.18.79.27 1.69.27 2.73z" stroke="#fff" stroke-width="1.5" stroke-linecap="round" stroke-linejoin="round"/><path d="M21.73 6.27L6.27 21.73C3.26 21.04 2 18.96 2 15V9c0-5 2-7 7-7h6c3.96 0 6.04 1.26 6.73 4.27z" stroke="#fff" stroke-width="1.5" stroke-linecap="round" stroke-linejoin="round"/><path d="M20.38 20.38C19.25 21.5 17.5 22 15 22H9c-1.04 0-1.94-.09-2.73-.27L14 14l6.38 6.38z" stroke="#fff" stroke-width="1.5" stroke-linecap="round" stroke-linejoin="round"/><path d="M6.24 7.98c.68-2.93 5.08-2.93 5.76 0 .39 1.72-.69 3.18-1.64 4.08a1.8 1.8 0 01-2.48 0c-.95-.9-2.04-2.36-1.64-4.08z" stroke="#fff" stroke-width="1.5"/><path d="M9.095 8.7h.009" stroke="#fff" stroke-width="2" stroke-linecap="round" stroke-linejoin="round"/></svg><svg viewBox="0 0 23 50" id="next" xmlns="http://www.w3.org/2000/svg"><path d="M1.104 1.9l19.017 19.017c2.246 2.245 2.246 5.92 0 8.166L1.104 48.1" stroke="#D3B47F" stroke-width="2" stroke-miterlimit="10" stroke-linecap="round" stroke-linejoin="round"/></svg><svg viewBox="0 0 24 24" id="phone" xmlns="http://www.w3.org/2000/svg"><path d="M21.97 18.33c0 .36-.08.73-.25 1.09-.17.36-.39.7-.68 1.02-.49.54-1.03.93-1.64 1.18-.6.25-1.25.38-1.95.38-1.02 0-2.11-.24-3.26-.73s-2.3-1.15-3.44-1.98a28.75 28.75 0 01-3.28-2.8 28.414 28.414 0 01-2.79-3.27c-.82-1.14-1.48-2.28-1.96-3.41C2.24 8.67 2 7.58 2 6.54c0-.68.12-1.33.36-1.93.24-.61.62-1.17 1.15-1.67C4.15 2.31 4.85 2 5.59 2c.28 0 .56.06.81.18.26.12.49.3.67.56l2.32 3.27c.18.25.31.48.4.7.09.21.14.42.14.61 0 .24-.07.48-.21.71-.13.23-.32.47-.56.71l-.76.79c-.11.11-.16.24-.16.4 0 .08.01.15.03.23.03.08.06.14.08.2.18.33.49.76.93 1.28.45.52.93 1.05 1.45 1.58.54.53 1.06 1.02 1.59 1.47.52.44.95.74 1.29.92.05.02.11.05.18.08.08.03.16.04.25.04.17 0 .3-.06.41-.17l.76-.75c.25-.25.49-.44.72-.56.23-.14.46-.21.71-.21.19 0 .39.04.61.13.22.09.45.22.7.39l3.31 2.35c.26.18.44.39.55.64.1.25.16.5.16.78z" stroke="#fff" stroke-width="1.5" stroke-miterlimit="10"/><path d="M18.5 9c0-.6-.47-1.52-1.17-2.27-.64-.69-1.49-1.23-2.33-1.23M22 9c0-3.87-3.13-7-7-7" stroke="#fff" stroke-width="1.5" stroke-linecap="round" stroke-linejoin="round"/></svg><svg viewBox="0 0 23 50" id="prev" xmlns="http://www.w3.org/2000/svg"><path d="M21.896 1.9L2.879 20.917c-2.246 2.245-2.246 5.92 0 8.166L21.896 48.1" stroke="#fff" stroke-width="2" stroke-miterlimit="10" stroke-linecap="round" stroke-linejoin="round"/></svg><svg viewBox="0 0 83 58" id="reviews" xmlns="http://www.w3.org/2000/svg"><path d="M20.134 58c-3.425 0-6.506-.606-9.245-1.819-2.603-1.347-4.657-3.166-6.164-5.456-1.37-2.021-2.534-4.581-3.492-7.68C.41 39.812 0 36.376 0 32.74c0-6.737 1.712-13.001 5.136-18.795C8.697 8.016 14.176 3.368 21.572 0l1.849 3.638c-3.698 1.616-6.985 4.041-9.862 7.275-2.876 3.099-4.725 6.4-5.547 9.902-.958 3.368-1.095 6.602-.41 9.7 3.287-3.637 7.806-5.456 13.559-5.456 5.067 0 9.176 1.415 12.327 4.244 3.15 2.83 4.725 6.871 4.725 12.126 0 4.984-1.712 9.026-5.136 12.125C29.79 56.518 25.475 58 20.134 58zm44.787 0c-3.424 0-6.506-.606-9.245-1.819-2.603-1.347-4.657-3.166-6.164-5.456-1.37-2.021-2.533-4.581-3.492-7.68-.822-3.233-1.233-6.669-1.233-10.306 0-6.737 1.712-13.001 5.136-18.795C53.484 8.016 58.963 3.368 66.36 0l1.849 3.638c-3.698 1.616-6.985 4.041-9.861 7.275-2.877 3.099-4.726 6.4-5.547 9.902-.96 3.368-1.096 6.602-.411 9.7 3.287-3.637 7.807-5.456 13.56-5.456 5.067 0 9.176 1.415 12.326 4.244C81.425 32.133 83 36.174 83 41.43c0 4.984-1.712 9.026-5.136 12.125C74.577 56.518 70.262 58 64.92 58z"/></svg><svg viewBox="0 0 48 48" id="tw" xmlns="http://www.w3.org/2000/svg"><circle cx="24" cy="24" r="23.5" stroke="#fff"/><path d="M20.837 18.832v1.808H17.86V30h-2.24v-9.36h-2.976v-1.808h8.192zm13.922 2.304L32.167 30h-2.416l-1.616-6.192L26.52 30h-2.432l-2.608-8.864h2.272l1.568 6.752 1.696-6.752h2.368l1.664 6.736 1.568-6.736h2.144z"/></svg><svg viewBox="0 0 48 48" id="yt" xmlns="http://www.w3.org/2000/svg"><circle cx="24" cy="24" r="23.5" stroke="#fff"/><path d="M19.28 26.112V30h2.24v-3.888l3.777-7.28H22.8l-2.384 5.104-2.4-5.104H15.49l3.791 7.28zm7.66 1.136c0 2.032 1.136 2.752 2.832 2.752h1.408v-1.888h-1.04c-.704 0-.944-.256-.944-.848v-4.288h1.984v-1.84h-1.984v-2.192H26.94v2.192h-1.056v1.84h1.056v4.272z"/></svg></svg>